<?xml version="1.0" encoding="UTF-8" standalone="no"?>
<!DOCTYPE svg PUBLIC "-//W3C//DTD SVG 1.1//EN"
 "http://www.w3.org/Graphics/SVG/1.1/DTD/svg11.dtd">
<!-- Generated by graphviz version 2.43.0 (0)
 -->
<!-- Title: tb_example2 Pages: 1 -->
<svg width="370pt" height="281pt"
 viewBox="0.00 0.00 370.00 281.00" xmlns="http://www.w3.org/2000/svg" xmlns:xlink="http://www.w3.org/1999/xlink">
<g id="graph0" class="graph" transform="scale(1 1) rotate(0) translate(4 277)">
<title>tb_example2</title>
<polygon fill="white" stroke="transparent" points="-4,4 -4,-277 366,-277 366,4 -4,4"/>
<!-- Node1 -->
<g id="node1" class="node">
<title>Node1</title>
<g id="a_node1"><a xlink:title=" ">
<polygon fill="#bfbfbf" stroke="black" points="123,-0.5 123,-79.5 239,-79.5 239,-0.5 123,-0.5"/>
<text text-anchor="middle" x="181" y="-67.5" font-family="Helvetica,sans-Serif" font-size="10.00">tb_example2</text>
<polyline fill="none" stroke="black" points="123,-60.5 239,-60.5 "/>
<text text-anchor="start" x="131" y="-48.5" font-family="Helvetica,sans-Serif" font-size="10.00">+ G_WIDTH</text>
<text text-anchor="start" x="131" y="-37.5" font-family="Helvetica,sans-Serif" font-size="10.00">+ G_CLK_PERIOD</text>
<text text-anchor="start" x="131" y="-26.5" font-family="Helvetica,sans-Serif" font-size="10.00">+ G_DISABLE_BUGS</text>
<polyline fill="none" stroke="black" points="123,-19.5 239,-19.5 "/>
<text text-anchor="middle" x="181" y="-7.5" font-family="Helvetica,sans-Serif" font-size="10.00"> </text>
</a>
</g>
</g>
<!-- Node2 -->
<g id="node2" class="node">
<title>Node2</title>
<g id="a_node2"><a xlink:href="classdut__example.html" target="_top" xlink:title=" ">
<polygon fill="white" stroke="black" points="0,-122 0,-267 116,-267 116,-122 0,-122"/>
<text text-anchor="middle" x="58" y="-255" font-family="Helvetica,sans-Serif" font-size="10.00">dut_example</text>
<polyline fill="none" stroke="black" points="0,-248 116,-248 "/>
<text text-anchor="start" x="8" y="-236" font-family="Helvetica,sans-Serif" font-size="10.00">+ G_WIDTH</text>
<text text-anchor="start" x="8" y="-225" font-family="Helvetica,sans-Serif" font-size="10.00">+ G_DISABLE_BUGS</text>
<text text-anchor="start" x="8" y="-214" font-family="Helvetica,sans-Serif" font-size="10.00">+ clk_i</text>
<text text-anchor="start" x="8" y="-203" font-family="Helvetica,sans-Serif" font-size="10.00">+ rst_i</text>
<text text-anchor="start" x="8" y="-192" font-family="Helvetica,sans-Serif" font-size="10.00">+ carry_i</text>
<text text-anchor="start" x="8" y="-181" font-family="Helvetica,sans-Serif" font-size="10.00">+ x_i</text>
<text text-anchor="start" x="8" y="-170" font-family="Helvetica,sans-Serif" font-size="10.00">+ y_i</text>
<text text-anchor="start" x="8" y="-159" font-family="Helvetica,sans-Serif" font-size="10.00">+ sum_o</text>
<text text-anchor="start" x="8" y="-148" font-family="Helvetica,sans-Serif" font-size="10.00">+ carry_o</text>
<polyline fill="none" stroke="black" points="0,-141 116,-141 "/>
<text text-anchor="middle" x="58" y="-129" font-family="Helvetica,sans-Serif" font-size="10.00"> </text>
</a>
</g>
</g>
<!-- Node2&#45;&gt;Node1 -->
<g id="edge1" class="edge">
<title>Node2&#45;&gt;Node1</title>
<path fill="none" stroke="midnightblue" d="M122.22,-113.88C131.84,-101.96 141.36,-90.14 149.86,-79.61"/>
<polygon fill="none" stroke="midnightblue" points="119.45,-111.73 115.9,-121.72 124.9,-116.13 119.45,-111.73"/>
</g>
<!-- Node3 -->
<g id="node3" class="node">
<title>Node3</title>
<g id="a_node3"><a xlink:href="classpltbutils__clkgen.html" target="_top" xlink:title=" ">
<polygon fill="white" stroke="black" points="134,-144 134,-245 228,-245 228,-144 134,-144"/>
<text text-anchor="middle" x="181" y="-233" font-family="Helvetica,sans-Serif" font-size="10.00">pltbutils_clkgen</text>
<polyline fill="none" stroke="black" points="134,-226 228,-226 "/>
<text text-anchor="start" x="142" y="-214" font-family="Helvetica,sans-Serif" font-size="10.00">+ G_PERIOD</text>
<text text-anchor="start" x="142" y="-203" font-family="Helvetica,sans-Serif" font-size="10.00">+ G_INITVALUE</text>
<text text-anchor="start" x="142" y="-192" font-family="Helvetica,sans-Serif" font-size="10.00">+ clk_o</text>
<text text-anchor="start" x="142" y="-181" font-family="Helvetica,sans-Serif" font-size="10.00">+ clk_n_o</text>
<text text-anchor="start" x="142" y="-170" font-family="Helvetica,sans-Serif" font-size="10.00">+ stop_sim_i</text>
<polyline fill="none" stroke="black" points="134,-163 228,-163 "/>
<text text-anchor="middle" x="181" y="-151" font-family="Helvetica,sans-Serif" font-size="10.00"> </text>
</a>
</g>
</g>
<!-- Node3&#45;&gt;Node1 -->
<g id="edge2" class="edge">
<title>Node3&#45;&gt;Node1</title>
<path fill="none" stroke="midnightblue" d="M181,-133.75C181,-115.56 181,-96.05 181,-79.64"/>
<polygon fill="none" stroke="midnightblue" points="177.5,-133.99 181,-143.99 184.5,-133.99 177.5,-133.99"/>
</g>
<!-- Node4 -->
<g id="node4" class="node">
<title>Node4</title>
<g id="a_node4"><a xlink:href="classtc__example2.html" target="_top" xlink:title=" ">
<polygon fill="white" stroke="black" points="246,-116.5 246,-272.5 362,-272.5 362,-116.5 246,-116.5"/>
<text text-anchor="middle" x="304" y="-260.5" font-family="Helvetica,sans-Serif" font-size="10.00">tc_example2</text>
<polyline fill="none" stroke="black" points="246,-253.5 362,-253.5 "/>
<text text-anchor="start" x="254" y="-241.5" font-family="Helvetica,sans-Serif" font-size="10.00">+ G_WIDTH</text>
<text text-anchor="start" x="254" y="-230.5" font-family="Helvetica,sans-Serif" font-size="10.00">+ G_DISABLE_BUGS</text>
<text text-anchor="start" x="254" y="-219.5" font-family="Helvetica,sans-Serif" font-size="10.00">+ pltbs</text>
<text text-anchor="start" x="254" y="-208.5" font-family="Helvetica,sans-Serif" font-size="10.00">+ clk</text>
<text text-anchor="start" x="254" y="-197.5" font-family="Helvetica,sans-Serif" font-size="10.00">+ rst</text>
<text text-anchor="start" x="254" y="-186.5" font-family="Helvetica,sans-Serif" font-size="10.00">+ carry_in</text>
<text text-anchor="start" x="254" y="-175.5" font-family="Helvetica,sans-Serif" font-size="10.00">+ x</text>
<text text-anchor="start" x="254" y="-164.5" font-family="Helvetica,sans-Serif" font-size="10.00">+ y</text>
<text text-anchor="start" x="254" y="-153.5" font-family="Helvetica,sans-Serif" font-size="10.00">+ sum</text>
<text text-anchor="start" x="254" y="-142.5" font-family="Helvetica,sans-Serif" font-size="10.00">+ carry_out</text>
<polyline fill="none" stroke="black" points="246,-135.5 362,-135.5 "/>
<text text-anchor="middle" x="304" y="-123.5" font-family="Helvetica,sans-Serif" font-size="10.00"> </text>
</a>
</g>
</g>
<!-- Node4&#45;&gt;Node1 -->
<g id="edge3" class="edge">
<title>Node4&#45;&gt;Node1</title>
<path fill="none" stroke="midnightblue" d="M239.24,-113.21C229.86,-101.57 220.57,-90.07 212.27,-79.77"/>
<polygon fill="none" stroke="midnightblue" points="236.74,-115.68 245.74,-121.27 242.19,-111.29 236.74,-115.68"/>
</g>
</g>
</svg>
