<?xml version="1.0" encoding="UTF-8" standalone="no"?>
<!DOCTYPE svg PUBLIC "-//W3C//DTD SVG 1.1//EN"
 "http://www.w3.org/Graphics/SVG/1.1/DTD/svg11.dtd">
<!-- Generated by graphviz version 2.43.0 (0)
 -->
<!-- Title: pltbutils_clkgen Pages: 1 -->
<!--zoomable 226 -->
<svg id="main" version="1.1" xmlns="http://www.w3.org/2000/svg" xmlns:xlink="http://www.w3.org/1999/xlink" xml:space="preserve" onload="init(evt)">
<style type="text/css"><![CDATA[
.edge:hover path { stroke: red; }
.edge:hover polygon { stroke: red; fill: red; }
]]></style>
<script type="text/javascript"><![CDATA[
var edges = document.getElementsByTagName('g');
if (edges && edges.length) {
  for (var i=0;i<edges.length;i++) {
    if (edges[i].id.substr(0,4)=='edge') {
      edges[i].setAttribute('class','edge');
    }
  }
}
]]></script>
        <defs>
                <circle id="rim" cx="0" cy="0" r="7"/>
                <circle id="rim2" cx="0" cy="0" r="3.5"/>
                <g id="zoomPlus">
                        <use xlink:href="#rim" fill="#404040">
                                <set attributeName="fill" to="#808080" begin="zoomplus.mouseover" end="zoomplus.mouseout"/>
                        </use>
                        <path d="M-4,0h8M0,-4v8" fill="none" stroke="white" stroke-width="1.5" pointer-events="none"/>
                </g>
                <g id="zoomMin">
                        <use xlink:href="#rim" fill="#404040">
                                <set attributeName="fill" to="#808080" begin="zoomminus.mouseover" end="zoomminus.mouseout"/>
                        </use>
                        <path d="M-4,0h8" fill="none" stroke="white" stroke-width="1.5" pointer-events="none"/>
                </g>
                <g id="dirArrow">
                        <path fill="none" stroke="white" stroke-width="1.5" d="M0,-3.0v7 M-2.5,-0.5L0,-3.0L2.5,-0.5"/>
                </g>
               <g id="resetDef">
                       <use xlink:href="#rim2" fill="#404040">
                               <set attributeName="fill" to="#808080" begin="reset.mouseover" end="reset.mouseout"/>
                       </use>
               </g>
        </defs>

<script type="text/javascript">
var viewWidth = 616;
var viewHeight = 226;
var sectionId = 'dynsection-0';
</script>
<script xlink:href="svgpan.js"/>
<svg id="graph" class="graph">
<g id="viewport">
<title>pltbutils_clkgen</title>
<polygon fill="white" stroke="transparent" points="-4,4 -4,-222 612,-222 612,4 -4,4"/>
<!-- Node1 -->
<g id="node1" class="node">
<title>Node1</title>
<g id="a_node1"><a xlink:title=" ">
<polygon fill="#bfbfbf" stroke="black" points="264.5,-116.5 264.5,-217.5 358.5,-217.5 358.5,-116.5 264.5,-116.5"/>
<text text-anchor="middle" x="311.5" y="-205.5" font-family="Helvetica,sans-Serif" font-size="10.00">pltbutils_clkgen</text>
<polyline fill="none" stroke="black" points="264.5,-198.5 358.5,-198.5 "/>
<text text-anchor="start" x="272.5" y="-186.5" font-family="Helvetica,sans-Serif" font-size="10.00">+ G_PERIOD</text>
<text text-anchor="start" x="272.5" y="-175.5" font-family="Helvetica,sans-Serif" font-size="10.00">+ G_INITVALUE</text>
<text text-anchor="start" x="272.5" y="-164.5" font-family="Helvetica,sans-Serif" font-size="10.00">+ clk_o</text>
<text text-anchor="start" x="272.5" y="-153.5" font-family="Helvetica,sans-Serif" font-size="10.00">+ clk_n_o</text>
<text text-anchor="start" x="272.5" y="-142.5" font-family="Helvetica,sans-Serif" font-size="10.00">+ stop_sim_i</text>
<polyline fill="none" stroke="black" points="264.5,-135.5 358.5,-135.5 "/>
<text text-anchor="middle" x="311.5" y="-123.5" font-family="Helvetica,sans-Serif" font-size="10.00"> </text>
</a>
</g>
</g>
<!-- Node2 -->
<g id="node2" class="node">
<title>Node2</title>
<g id="a_node2"><a xlink:href="classtb__pltbutils.html" target="_top" xlink:title=" ">
<polygon fill="white" stroke="black" points="0,-6 0,-74 101,-74 101,-6 0,-6"/>
<text text-anchor="middle" x="50.5" y="-62" font-family="Helvetica,sans-Serif" font-size="10.00">tb_pltbutils</text>
<polyline fill="none" stroke="black" points="0,-55 101,-55 "/>
<text text-anchor="start" x="8" y="-43" font-family="Helvetica,sans-Serif" font-size="10.00">+ G_SKIPTESTS</text>
<text text-anchor="start" x="8" y="-32" font-family="Helvetica,sans-Serif" font-size="10.00">+ G_CLK_PERIOD</text>
<polyline fill="none" stroke="black" points="0,-25 101,-25 "/>
<text text-anchor="middle" x="50.5" y="-13" font-family="Helvetica,sans-Serif" font-size="10.00"> </text>
</a>
</g>
</g>
<!-- Node1&#45;&gt;Node2 -->
<g id="edge1" class="edge">
<title>Node1&#45;&gt;Node2</title>
<path fill="none" stroke="midnightblue" d="M254.59,-144.69C213.67,-128.64 157.62,-105.15 110.5,-80 106.99,-78.13 103.42,-76.11 99.87,-74.02"/>
<polygon fill="none" stroke="midnightblue" points="253.54,-148.04 264.13,-148.4 256.08,-141.51 253.54,-148.04"/>
</g>
<!-- Node3 -->
<g id="node3" class="node">
<title>Node3</title>
<g id="a_node3"><a xlink:href="classtb__example1.html" target="_top" xlink:title=" ">
<polygon fill="white" stroke="black" points="119.5,-0.5 119.5,-79.5 235.5,-79.5 235.5,-0.5 119.5,-0.5"/>
<text text-anchor="middle" x="177.5" y="-67.5" font-family="Helvetica,sans-Serif" font-size="10.00">tb_example1</text>
<polyline fill="none" stroke="black" points="119.5,-60.5 235.5,-60.5 "/>
<text text-anchor="start" x="127.5" y="-48.5" font-family="Helvetica,sans-Serif" font-size="10.00">+ G_WIDTH</text>
<text text-anchor="start" x="127.5" y="-37.5" font-family="Helvetica,sans-Serif" font-size="10.00">+ G_CLK_PERIOD</text>
<text text-anchor="start" x="127.5" y="-26.5" font-family="Helvetica,sans-Serif" font-size="10.00">+ G_DISABLE_BUGS</text>
<polyline fill="none" stroke="black" points="119.5,-19.5 235.5,-19.5 "/>
<text text-anchor="middle" x="177.5" y="-7.5" font-family="Helvetica,sans-Serif" font-size="10.00"> </text>
</a>
</g>
</g>
<!-- Node1&#45;&gt;Node3 -->
<g id="edge2" class="edge">
<title>Node1&#45;&gt;Node3</title>
<path fill="none" stroke="midnightblue" d="M256.89,-115.06C244.23,-103.25 230.96,-90.87 218.97,-79.69"/>
<polygon fill="none" stroke="midnightblue" points="254.56,-117.67 264.26,-121.93 259.33,-112.55 254.56,-117.67"/>
</g>
<!-- Node4 -->
<g id="node4" class="node">
<title>Node4</title>
<g id="a_node4"><a xlink:href="classtb__example2.html" target="_top" xlink:title=" ">
<polygon fill="white" stroke="black" points="253.5,-0.5 253.5,-79.5 369.5,-79.5 369.5,-0.5 253.5,-0.5"/>
<text text-anchor="middle" x="311.5" y="-67.5" font-family="Helvetica,sans-Serif" font-size="10.00">tb_example2</text>
<polyline fill="none" stroke="black" points="253.5,-60.5 369.5,-60.5 "/>
<text text-anchor="start" x="261.5" y="-48.5" font-family="Helvetica,sans-Serif" font-size="10.00">+ G_WIDTH</text>
<text text-anchor="start" x="261.5" y="-37.5" font-family="Helvetica,sans-Serif" font-size="10.00">+ G_CLK_PERIOD</text>
<text text-anchor="start" x="261.5" y="-26.5" font-family="Helvetica,sans-Serif" font-size="10.00">+ G_DISABLE_BUGS</text>
<polyline fill="none" stroke="black" points="253.5,-19.5 369.5,-19.5 "/>
<text text-anchor="middle" x="311.5" y="-7.5" font-family="Helvetica,sans-Serif" font-size="10.00"> </text>
</a>
</g>
</g>
<!-- Node1&#45;&gt;Node4 -->
<g id="edge3" class="edge">
<title>Node1&#45;&gt;Node4</title>
<path fill="none" stroke="midnightblue" d="M311.5,-106.19C311.5,-97.22 311.5,-88.18 311.5,-79.81"/>
<polygon fill="none" stroke="midnightblue" points="308,-106.24 311.5,-116.24 315,-106.24 308,-106.24"/>
</g>
<!-- Node5 -->
<g id="node5" class="node">
<title>Node5</title>
<g id="a_node5"><a xlink:href="classtb__template1.html" target="_top" xlink:title=" ">
<polygon fill="white" stroke="black" points="388,-6 388,-74 489,-74 489,-6 388,-6"/>
<text text-anchor="middle" x="438.5" y="-62" font-family="Helvetica,sans-Serif" font-size="10.00">tb_template1</text>
<polyline fill="none" stroke="black" points="388,-55 489,-55 "/>
<text text-anchor="start" x="396" y="-43" font-family="Helvetica,sans-Serif" font-size="10.00">+ G_CLK_PERIOD</text>
<text text-anchor="start" x="396" y="-32" font-family="Helvetica,sans-Serif" font-size="10.00">+ G_SKIPTESTS</text>
<polyline fill="none" stroke="black" points="388,-25 489,-25 "/>
<text text-anchor="middle" x="438.5" y="-13" font-family="Helvetica,sans-Serif" font-size="10.00"> </text>
</a>
</g>
</g>
<!-- Node1&#45;&gt;Node5 -->
<g id="edge4" class="edge">
<title>Node1&#45;&gt;Node5</title>
<path fill="none" stroke="midnightblue" d="M366.01,-112.34C379.14,-99.43 392.79,-85.99 404.65,-74.31"/>
<polygon fill="none" stroke="midnightblue" points="363.46,-109.95 358.79,-119.45 368.37,-114.93 363.46,-109.95"/>
</g>
<!-- Node6 -->
<g id="node6" class="node">
<title>Node6</title>
<g id="a_node6"><a xlink:href="classtb__template2.html" target="_top" xlink:title=" ">
<polygon fill="white" stroke="black" points="507,-6 507,-74 608,-74 608,-6 507,-6"/>
<text text-anchor="middle" x="557.5" y="-62" font-family="Helvetica,sans-Serif" font-size="10.00">tb_template2</text>
<polyline fill="none" stroke="black" points="507,-55 608,-55 "/>
<text text-anchor="start" x="515" y="-43" font-family="Helvetica,sans-Serif" font-size="10.00">+ G_CLK_PERIOD</text>
<text text-anchor="start" x="515" y="-32" font-family="Helvetica,sans-Serif" font-size="10.00">+ G_SKIPTESTS</text>
<polyline fill="none" stroke="black" points="507,-25 608,-25 "/>
<text text-anchor="middle" x="557.5" y="-13" font-family="Helvetica,sans-Serif" font-size="10.00"> </text>
</a>
</g>
</g>
<!-- Node1&#45;&gt;Node6 -->
<g id="edge5" class="edge">
<title>Node1&#45;&gt;Node6</title>
<path fill="none" stroke="midnightblue" d="M367.89,-142.75C405.58,-126.56 455.89,-103.7 498.5,-80 501.83,-78.15 505.21,-76.18 508.59,-74.14"/>
<polygon fill="none" stroke="midnightblue" points="366.41,-139.58 358.59,-146.72 369.16,-146.02 366.41,-139.58"/>
</g>
</g>
</svg>
        <g id="navigator" transform="translate(0 0)" fill="#404254">
                <rect fill="#f2f5e9" fill-opacity="0.5" stroke="#606060" stroke-width=".5" x="0" y="0" width="60" height="60"/>
                <use id="zoomplus" xlink:href="#zoomPlus" x="17" y="9" onmousedown="handleZoom(evt,'in')"/>
                <use id="zoomminus" xlink:href="#zoomMin" x="42" y="9" onmousedown="handleZoom(evt,'out')"/>
                <use id="reset" xlink:href="#resetDef" x="30" y="36" onmousedown="handleReset()"/>
                <g id="arrowUp" xlink:href="#dirArrow" transform="translate(30 24)" onmousedown="handlePan(0,-1)">
                  <use xlink:href="#rim" fill="#404040">
                        <set attributeName="fill" to="#808080" begin="arrowUp.mouseover" end="arrowUp.mouseout"/>
                  </use>
                  <path fill="none" stroke="white" stroke-width="1.5" d="M0,-3.0v7 M-2.5,-0.5L0,-3.0L2.5,-0.5"/>
                </g>
                <g id="arrowRight" xlink:href="#dirArrow" transform="rotate(90) translate(36 -43)" onmousedown="handlePan(1,0)">
                  <use xlink:href="#rim" fill="#404040">
                        <set attributeName="fill" to="#808080" begin="arrowRight.mouseover" end="arrowRight.mouseout"/>
                  </use>
                  <path fill="none" stroke="white" stroke-width="1.5" d="M0,-3.0v7 M-2.5,-0.5L0,-3.0L2.5,-0.5"/>
                </g>
                <g id="arrowDown" xlink:href="#dirArrow" transform="rotate(180) translate(-30 -48)" onmousedown="handlePan(0,1)">
                  <use xlink:href="#rim" fill="#404040">
                        <set attributeName="fill" to="#808080" begin="arrowDown.mouseover" end="arrowDown.mouseout"/>
                  </use>
                  <path fill="none" stroke="white" stroke-width="1.5" d="M0,-3.0v7 M-2.5,-0.5L0,-3.0L2.5,-0.5"/>
                </g>
                <g id="arrowLeft" xlink:href="#dirArrow" transform="rotate(270) translate(-36 17)" onmousedown="handlePan(-1,0)">
                  <use xlink:href="#rim" fill="#404040">
                        <set attributeName="fill" to="#808080" begin="arrowLeft.mouseover" end="arrowLeft.mouseout"/>
                  </use>
                  <path fill="none" stroke="white" stroke-width="1.5" d="M0,-3.0v7 M-2.5,-0.5L0,-3.0L2.5,-0.5"/>
                </g>
        </g>
        <svg viewBox="0 0 15 15" width="100%" height="30px" preserveAspectRatio="xMaxYMin meet">
         <g id="arrow_out" transform="scale(0.3 0.3)">
          <a xlink:href="classpltbutils__clkgen__inherit__graph_org.svg" target="_base">
           <rect id="button" ry="5" rx="5" y="6" x="6" height="38" width="38"
                fill="#f2f5e9" fill-opacity="0.5" stroke="#606060" stroke-width="1.0"/>
           <path id="arrow"
             d="M 11.500037,31.436501 C 11.940474,20.09759 22.043105,11.32322 32.158766,21.979434 L 37.068811,17.246167 C 37.068811,17.246167 37.088388,32 37.088388,32 L 22.160133,31.978069 C 22.160133,31.978069 26.997745,27.140456 26.997745,27.140456 C 18.528582,18.264221 13.291696,25.230495 11.500037,31.436501 z"
             style="fill:#404040;"/>
          </a>
         </g>
        </svg>
</svg>
