<?xml version="1.0" encoding="UTF-8" standalone="no"?>
<!DOCTYPE svg PUBLIC "-//W3C//DTD SVG 1.1//EN"
 "http://www.w3.org/Graphics/SVG/1.1/DTD/svg11.dtd">
<!-- Generated by graphviz version 2.43.0 (0)
 -->
<!-- Title: tb_template2 Pages: 1 -->
<svg width="212pt" height="215pt"
 viewBox="0.00 0.00 212.00 215.00" xmlns="http://www.w3.org/2000/svg" xmlns:xlink="http://www.w3.org/1999/xlink">
<g id="graph0" class="graph" transform="scale(1 1) rotate(0) translate(4 211)">
<title>tb_template2</title>
<polygon fill="white" stroke="transparent" points="-4,4 -4,-211 208,-211 208,4 -4,4"/>
<!-- Node1 -->
<g id="node1" class="node">
<title>Node1</title>
<g id="a_node1"><a xlink:title=" ">
<polygon fill="#bfbfbf" stroke="black" points="51.5,-0.5 51.5,-68.5 152.5,-68.5 152.5,-0.5 51.5,-0.5"/>
<text text-anchor="middle" x="102" y="-56.5" font-family="Helvetica,sans-Serif" font-size="10.00">tb_template2</text>
<polyline fill="none" stroke="black" points="51.5,-49.5 152.5,-49.5 "/>
<text text-anchor="start" x="59.5" y="-37.5" font-family="Helvetica,sans-Serif" font-size="10.00">+ G_CLK_PERIOD</text>
<text text-anchor="start" x="59.5" y="-26.5" font-family="Helvetica,sans-Serif" font-size="10.00">+ G_SKIPTESTS</text>
<polyline fill="none" stroke="black" points="51.5,-19.5 152.5,-19.5 "/>
<text text-anchor="middle" x="102" y="-7.5" font-family="Helvetica,sans-Serif" font-size="10.00"> </text>
</a>
</g>
</g>
<!-- Node2 -->
<g id="node2" class="node">
<title>Node2</title>
<g id="a_node2"><a xlink:href="classpltbutils__clkgen.html" target="_top" xlink:title=" ">
<polygon fill="white" stroke="black" points="0,-105.5 0,-206.5 94,-206.5 94,-105.5 0,-105.5"/>
<text text-anchor="middle" x="47" y="-194.5" font-family="Helvetica,sans-Serif" font-size="10.00">pltbutils_clkgen</text>
<polyline fill="none" stroke="black" points="0,-187.5 94,-187.5 "/>
<text text-anchor="start" x="8" y="-175.5" font-family="Helvetica,sans-Serif" font-size="10.00">+ G_PERIOD</text>
<text text-anchor="start" x="8" y="-164.5" font-family="Helvetica,sans-Serif" font-size="10.00">+ G_INITVALUE</text>
<text text-anchor="start" x="8" y="-153.5" font-family="Helvetica,sans-Serif" font-size="10.00">+ clk_o</text>
<text text-anchor="start" x="8" y="-142.5" font-family="Helvetica,sans-Serif" font-size="10.00">+ clk_n_o</text>
<text text-anchor="start" x="8" y="-131.5" font-family="Helvetica,sans-Serif" font-size="10.00">+ stop_sim_i</text>
<polyline fill="none" stroke="black" points="0,-124.5 94,-124.5 "/>
<text text-anchor="middle" x="47" y="-112.5" font-family="Helvetica,sans-Serif" font-size="10.00"> </text>
</a>
</g>
</g>
<!-- Node2&#45;&gt;Node1 -->
<g id="edge1" class="edge">
<title>Node2&#45;&gt;Node1</title>
<path fill="none" stroke="midnightblue" d="M74.13,-96.05C78.44,-86.7 82.75,-77.32 86.66,-68.83"/>
<polygon fill="none" stroke="midnightblue" points="70.85,-94.81 69.85,-105.36 77.21,-97.74 70.85,-94.81"/>
</g>
<!-- Node3 -->
<g id="node3" class="node">
<title>Node3</title>
<g id="a_node3"><a xlink:href="classtc__template2.html" target="_top" xlink:title=" ">
<polygon fill="white" stroke="black" points="112,-111 112,-201 204,-201 204,-111 112,-111"/>
<text text-anchor="middle" x="158" y="-189" font-family="Helvetica,sans-Serif" font-size="10.00">tc_template2</text>
<polyline fill="none" stroke="black" points="112,-182 204,-182 "/>
<text text-anchor="start" x="120" y="-170" font-family="Helvetica,sans-Serif" font-size="10.00">+ G_SKIPTESTS</text>
<text text-anchor="start" x="120" y="-159" font-family="Helvetica,sans-Serif" font-size="10.00">+ pltbs</text>
<text text-anchor="start" x="120" y="-148" font-family="Helvetica,sans-Serif" font-size="10.00">+ clk</text>
<text text-anchor="start" x="120" y="-137" font-family="Helvetica,sans-Serif" font-size="10.00">+ rst</text>
<polyline fill="none" stroke="black" points="112,-130 204,-130 "/>
<text text-anchor="middle" x="158" y="-118" font-family="Helvetica,sans-Serif" font-size="10.00"> </text>
</a>
</g>
</g>
<!-- Node3&#45;&gt;Node1 -->
<g id="edge2" class="edge">
<title>Node3&#45;&gt;Node1</title>
<path fill="none" stroke="midnightblue" d="M132.95,-101.54C127.7,-90.34 122.31,-78.84 117.53,-68.64"/>
<polygon fill="none" stroke="midnightblue" points="129.89,-103.27 137.31,-110.84 136.23,-100.3 129.89,-103.27"/>
</g>
</g>
</svg>
