<?xml version="1.0" encoding="UTF-8" standalone="no"?>
<!DOCTYPE svg PUBLIC "-//W3C//DTD SVG 1.1//EN"
 "http://www.w3.org/Graphics/SVG/1.1/DTD/svg11.dtd">
<!-- Generated by graphviz version 2.43.0 (0)
 -->
<!-- Title: dut_example Pages: 1 -->
<svg width="258pt" height="270pt"
 viewBox="0.00 0.00 258.00 270.00" xmlns="http://www.w3.org/2000/svg" xmlns:xlink="http://www.w3.org/1999/xlink">
<g id="graph0" class="graph" transform="scale(1 1) rotate(0) translate(4 266)">
<title>dut_example</title>
<polygon fill="white" stroke="transparent" points="-4,4 -4,-266 254,-266 254,4 -4,4"/>
<!-- Node1 -->
<g id="node1" class="node">
<title>Node1</title>
<g id="a_node1"><a xlink:title=" ">
<polygon fill="#bfbfbf" stroke="black" points="67,-116.5 67,-261.5 183,-261.5 183,-116.5 67,-116.5"/>
<text text-anchor="middle" x="125" y="-249.5" font-family="Helvetica,sans-Serif" font-size="10.00">dut_example</text>
<polyline fill="none" stroke="black" points="67,-242.5 183,-242.5 "/>
<text text-anchor="start" x="75" y="-230.5" font-family="Helvetica,sans-Serif" font-size="10.00">+ G_WIDTH</text>
<text text-anchor="start" x="75" y="-219.5" font-family="Helvetica,sans-Serif" font-size="10.00">+ G_DISABLE_BUGS</text>
<text text-anchor="start" x="75" y="-208.5" font-family="Helvetica,sans-Serif" font-size="10.00">+ clk_i</text>
<text text-anchor="start" x="75" y="-197.5" font-family="Helvetica,sans-Serif" font-size="10.00">+ rst_i</text>
<text text-anchor="start" x="75" y="-186.5" font-family="Helvetica,sans-Serif" font-size="10.00">+ carry_i</text>
<text text-anchor="start" x="75" y="-175.5" font-family="Helvetica,sans-Serif" font-size="10.00">+ x_i</text>
<text text-anchor="start" x="75" y="-164.5" font-family="Helvetica,sans-Serif" font-size="10.00">+ y_i</text>
<text text-anchor="start" x="75" y="-153.5" font-family="Helvetica,sans-Serif" font-size="10.00">+ sum_o</text>
<text text-anchor="start" x="75" y="-142.5" font-family="Helvetica,sans-Serif" font-size="10.00">+ carry_o</text>
<polyline fill="none" stroke="black" points="67,-135.5 183,-135.5 "/>
<text text-anchor="middle" x="125" y="-123.5" font-family="Helvetica,sans-Serif" font-size="10.00"> </text>
</a>
</g>
</g>
<!-- Node2 -->
<g id="node2" class="node">
<title>Node2</title>
<g id="a_node2"><a xlink:href="classtb__example1.html" target="_top" xlink:title=" ">
<polygon fill="white" stroke="black" points="0,-0.5 0,-79.5 116,-79.5 116,-0.5 0,-0.5"/>
<text text-anchor="middle" x="58" y="-67.5" font-family="Helvetica,sans-Serif" font-size="10.00">tb_example1</text>
<polyline fill="none" stroke="black" points="0,-60.5 116,-60.5 "/>
<text text-anchor="start" x="8" y="-48.5" font-family="Helvetica,sans-Serif" font-size="10.00">+ G_WIDTH</text>
<text text-anchor="start" x="8" y="-37.5" font-family="Helvetica,sans-Serif" font-size="10.00">+ G_CLK_PERIOD</text>
<text text-anchor="start" x="8" y="-26.5" font-family="Helvetica,sans-Serif" font-size="10.00">+ G_DISABLE_BUGS</text>
<polyline fill="none" stroke="black" points="0,-19.5 116,-19.5 "/>
<text text-anchor="middle" x="58" y="-7.5" font-family="Helvetica,sans-Serif" font-size="10.00"> </text>
</a>
</g>
</g>
<!-- Node1&#45;&gt;Node2 -->
<g id="edge1" class="edge">
<title>Node1&#45;&gt;Node2</title>
<path fill="none" stroke="midnightblue" d="M88,-106.83C83.74,-97.47 79.55,-88.28 75.72,-79.87"/>
<polygon fill="none" stroke="midnightblue" points="84.95,-108.57 92.29,-116.22 91.32,-105.67 84.95,-108.57"/>
</g>
<!-- Node3 -->
<g id="node3" class="node">
<title>Node3</title>
<g id="a_node3"><a xlink:href="classtb__example2.html" target="_top" xlink:title=" ">
<polygon fill="white" stroke="black" points="134,-0.5 134,-79.5 250,-79.5 250,-0.5 134,-0.5"/>
<text text-anchor="middle" x="192" y="-67.5" font-family="Helvetica,sans-Serif" font-size="10.00">tb_example2</text>
<polyline fill="none" stroke="black" points="134,-60.5 250,-60.5 "/>
<text text-anchor="start" x="142" y="-48.5" font-family="Helvetica,sans-Serif" font-size="10.00">+ G_WIDTH</text>
<text text-anchor="start" x="142" y="-37.5" font-family="Helvetica,sans-Serif" font-size="10.00">+ G_CLK_PERIOD</text>
<text text-anchor="start" x="142" y="-26.5" font-family="Helvetica,sans-Serif" font-size="10.00">+ G_DISABLE_BUGS</text>
<polyline fill="none" stroke="black" points="134,-19.5 250,-19.5 "/>
<text text-anchor="middle" x="192" y="-7.5" font-family="Helvetica,sans-Serif" font-size="10.00"> </text>
</a>
</g>
</g>
<!-- Node1&#45;&gt;Node3 -->
<g id="edge2" class="edge">
<title>Node1&#45;&gt;Node3</title>
<path fill="none" stroke="midnightblue" d="M162,-106.83C166.26,-97.47 170.45,-88.28 174.28,-79.87"/>
<polygon fill="none" stroke="midnightblue" points="158.68,-105.67 157.71,-116.22 165.05,-108.57 158.68,-105.67"/>
</g>
</g>
</svg>
