<?xml version="1.0" encoding="UTF-8" standalone="no"?>
<!DOCTYPE svg PUBLIC "-//W3C//DTD SVG 1.1//EN"
 "http://www.w3.org/Graphics/SVG/1.1/DTD/svg11.dtd">
<!-- Generated by graphviz version 2.43.0 (0)
 -->
<!-- Title: pltbutils_clkgen Pages: 1 -->
<!--zoomable 314 -->
<svg id="main" version="1.1" xmlns="http://www.w3.org/2000/svg" xmlns:xlink="http://www.w3.org/1999/xlink" xml:space="preserve" onload="init(evt)">
<style type="text/css"><![CDATA[
.edge:hover path { stroke: red; }
.edge:hover polygon { stroke: red; fill: red; }
]]></style>
<script type="text/javascript"><![CDATA[
var edges = document.getElementsByTagName('g');
if (edges && edges.length) {
  for (var i=0;i<edges.length;i++) {
    if (edges[i].id.substr(0,4)=='edge') {
      edges[i].setAttribute('class','edge');
    }
  }
}
]]></script>
        <defs>
                <circle id="rim" cx="0" cy="0" r="7"/>
                <circle id="rim2" cx="0" cy="0" r="3.5"/>
                <g id="zoomPlus">
                        <use xlink:href="#rim" fill="#404040">
                                <set attributeName="fill" to="#808080" begin="zoomplus.mouseover" end="zoomplus.mouseout"/>
                        </use>
                        <path d="M-4,0h8M0,-4v8" fill="none" stroke="white" stroke-width="1.5" pointer-events="none"/>
                </g>
                <g id="zoomMin">
                        <use xlink:href="#rim" fill="#404040">
                                <set attributeName="fill" to="#808080" begin="zoomminus.mouseover" end="zoomminus.mouseout"/>
                        </use>
                        <path d="M-4,0h8" fill="none" stroke="white" stroke-width="1.5" pointer-events="none"/>
                </g>
                <g id="dirArrow">
                        <path fill="none" stroke="white" stroke-width="1.5" d="M0,-3.0v7 M-2.5,-0.5L0,-3.0L2.5,-0.5"/>
                </g>
               <g id="resetDef">
                       <use xlink:href="#rim2" fill="#404040">
                               <set attributeName="fill" to="#808080" begin="reset.mouseover" end="reset.mouseout"/>
                       </use>
               </g>
        </defs>

<script type="text/javascript">
var viewWidth = 680;
var viewHeight = 314;
var sectionId = 'dynsection-0';
</script>
<script xlink:href="svgpan.js"/>
<svg id="graph" class="graph">
<g id="viewport">
<title>pltbutils_clkgen</title>
<polygon fill="white" stroke="transparent" points="-4,4 -4,-310 676,-310 676,4 -4,4"/>
<!-- Node1 -->
<g id="node1" class="node">
<title>Node1</title>
<g id="a_node1"><a xlink:title="Creates a clock for use in a testbench.">
<polygon fill="#bfbfbf" stroke="black" points="328.5,-204.5 328.5,-305.5 422.5,-305.5 422.5,-204.5 328.5,-204.5"/>
<text text-anchor="middle" x="375.5" y="-293.5" font-family="Helvetica,sans-Serif" font-size="10.00">pltbutils_clkgen</text>
<polyline fill="none" stroke="black" points="328.5,-286.5 422.5,-286.5 "/>
<text text-anchor="start" x="336.5" y="-274.5" font-family="Helvetica,sans-Serif" font-size="10.00">+ G_PERIOD</text>
<text text-anchor="start" x="336.5" y="-263.5" font-family="Helvetica,sans-Serif" font-size="10.00">+ G_INITVALUE</text>
<text text-anchor="start" x="336.5" y="-252.5" font-family="Helvetica,sans-Serif" font-size="10.00">+ clk_o</text>
<text text-anchor="start" x="336.5" y="-241.5" font-family="Helvetica,sans-Serif" font-size="10.00">+ clk_n_o</text>
<text text-anchor="start" x="336.5" y="-230.5" font-family="Helvetica,sans-Serif" font-size="10.00">+ stop_sim_i</text>
<polyline fill="none" stroke="black" points="328.5,-223.5 422.5,-223.5 "/>
<text text-anchor="middle" x="375.5" y="-211.5" font-family="Helvetica,sans-Serif" font-size="10.00"> </text>
</a>
</g>
</g>
<!-- Node2 -->
<g id="node2" class="node">
<title>Node2</title>
<g id="a_node2"><a xlink:href="classtb__pltbutils.html" target="_top" xlink:title=" ">
<polygon fill="white" stroke="black" points="0,-0.5 0,-167.5 165,-167.5 165,-0.5 0,-0.5"/>
<text text-anchor="middle" x="82.5" y="-155.5" font-family="Helvetica,sans-Serif" font-size="10.00">tb_pltbutils</text>
<polyline fill="none" stroke="black" points="0,-148.5 165,-148.5 "/>
<text text-anchor="start" x="8" y="-136.5" font-family="Helvetica,sans-Serif" font-size="10.00">+ G_SKIPTESTS</text>
<text text-anchor="start" x="8" y="-125.5" font-family="Helvetica,sans-Serif" font-size="10.00">+ G_CLK_PERIOD</text>
<text text-anchor="start" x="8" y="-114.5" font-family="Helvetica,sans-Serif" font-size="10.00">+ G_CHECKFILE_VERBOSITY</text>
<text text-anchor="start" x="8" y="-103.5" font-family="Helvetica,sans-Serif" font-size="10.00">+ G_BINTESTFILE_HEADER</text>
<text text-anchor="start" x="8" y="-92.5" font-family="Helvetica,sans-Serif" font-size="10.00">+ G_BINTESTFILE_LEN</text>
<text text-anchor="start" x="8" y="-81.5" font-family="Helvetica,sans-Serif" font-size="10.00">+ G_BINTESTFILE_REFERENCE</text>
<text text-anchor="start" x="8" y="-70.5" font-family="Helvetica,sans-Serif" font-size="10.00">+ G_BINTESTFILE_CORRECT</text>
<text text-anchor="start" x="8" y="-59.5" font-family="Helvetica,sans-Serif" font-size="10.00">+ G_BINTESTFILE_ERROR</text>
<text text-anchor="start" x="8" y="-48.5" font-family="Helvetica,sans-Serif" font-size="10.00">+ G_BINTESTFILE_SHORTER</text>
<text text-anchor="start" x="8" y="-37.5" font-family="Helvetica,sans-Serif" font-size="10.00">+ G_BINTESTFILE_LONGER</text>
<text text-anchor="start" x="8" y="-26.5" font-family="Helvetica,sans-Serif" font-size="10.00">and 10 more...</text>
<polyline fill="none" stroke="black" points="0,-19.5 165,-19.5 "/>
<text text-anchor="middle" x="82.5" y="-7.5" font-family="Helvetica,sans-Serif" font-size="10.00"> </text>
</a>
</g>
</g>
<!-- Node1&#45;&gt;Node2 -->
<g id="edge1" class="edge">
<title>Node1&#45;&gt;Node2</title>
<path fill="none" stroke="midnightblue" d="M318.79,-235.44C277.1,-220.46 220.03,-197.13 174.5,-168 171.33,-165.97 168.16,-163.83 165.01,-161.61"/>
<polygon fill="none" stroke="midnightblue" points="317.64,-238.74 328.24,-238.78 319.98,-232.14 317.64,-238.74"/>
</g>
<!-- Node3 -->
<g id="node3" class="node">
<title>Node3</title>
<g id="a_node3"><a xlink:href="classtb__example1.html" target="_top" xlink:title="This is an example which demonstrates how PlTbUtils can be used.">
<polygon fill="white" stroke="black" points="183.5,-44.5 183.5,-123.5 299.5,-123.5 299.5,-44.5 183.5,-44.5"/>
<text text-anchor="middle" x="241.5" y="-111.5" font-family="Helvetica,sans-Serif" font-size="10.00">tb_example1</text>
<polyline fill="none" stroke="black" points="183.5,-104.5 299.5,-104.5 "/>
<text text-anchor="start" x="191.5" y="-92.5" font-family="Helvetica,sans-Serif" font-size="10.00">+ G_WIDTH</text>
<text text-anchor="start" x="191.5" y="-81.5" font-family="Helvetica,sans-Serif" font-size="10.00">+ G_CLK_PERIOD</text>
<text text-anchor="start" x="191.5" y="-70.5" font-family="Helvetica,sans-Serif" font-size="10.00">+ G_DISABLE_BUGS</text>
<polyline fill="none" stroke="black" points="183.5,-63.5 299.5,-63.5 "/>
<text text-anchor="middle" x="241.5" y="-51.5" font-family="Helvetica,sans-Serif" font-size="10.00"> </text>
</a>
</g>
</g>
<!-- Node1&#45;&gt;Node3 -->
<g id="edge2" class="edge">
<title>Node1&#45;&gt;Node3</title>
<path fill="none" stroke="midnightblue" d="M329.69,-196.23C310.72,-172.3 289.22,-145.19 272.2,-123.72"/>
<polygon fill="none" stroke="midnightblue" points="327.06,-198.55 336.02,-204.21 332.55,-194.2 327.06,-198.55"/>
</g>
<!-- Node4 -->
<g id="node4" class="node">
<title>Node4</title>
<g id="a_node4"><a xlink:href="classtb__example2.html" target="_top" xlink:title=" ">
<polygon fill="white" stroke="black" points="317.5,-44.5 317.5,-123.5 433.5,-123.5 433.5,-44.5 317.5,-44.5"/>
<text text-anchor="middle" x="375.5" y="-111.5" font-family="Helvetica,sans-Serif" font-size="10.00">tb_example2</text>
<polyline fill="none" stroke="black" points="317.5,-104.5 433.5,-104.5 "/>
<text text-anchor="start" x="325.5" y="-92.5" font-family="Helvetica,sans-Serif" font-size="10.00">+ G_WIDTH</text>
<text text-anchor="start" x="325.5" y="-81.5" font-family="Helvetica,sans-Serif" font-size="10.00">+ G_CLK_PERIOD</text>
<text text-anchor="start" x="325.5" y="-70.5" font-family="Helvetica,sans-Serif" font-size="10.00">+ G_DISABLE_BUGS</text>
<polyline fill="none" stroke="black" points="317.5,-63.5 433.5,-63.5 "/>
<text text-anchor="middle" x="375.5" y="-51.5" font-family="Helvetica,sans-Serif" font-size="10.00"> </text>
</a>
</g>
</g>
<!-- Node1&#45;&gt;Node4 -->
<g id="edge3" class="edge">
<title>Node1&#45;&gt;Node4</title>
<path fill="none" stroke="midnightblue" d="M375.5,-194.04C375.5,-170.66 375.5,-144.53 375.5,-123.72"/>
<polygon fill="none" stroke="midnightblue" points="372,-194.21 375.5,-204.21 379,-194.21 372,-194.21"/>
</g>
<!-- Node5 -->
<g id="node5" class="node">
<title>Node5</title>
<g id="a_node5"><a xlink:href="classtb__template1.html" target="_top" xlink:title=" ">
<polygon fill="white" stroke="black" points="452,-50 452,-118 553,-118 553,-50 452,-50"/>
<text text-anchor="middle" x="502.5" y="-106" font-family="Helvetica,sans-Serif" font-size="10.00">tb_template1</text>
<polyline fill="none" stroke="black" points="452,-99 553,-99 "/>
<text text-anchor="start" x="460" y="-87" font-family="Helvetica,sans-Serif" font-size="10.00">+ G_CLK_PERIOD</text>
<text text-anchor="start" x="460" y="-76" font-family="Helvetica,sans-Serif" font-size="10.00">+ G_SKIPTESTS</text>
<polyline fill="none" stroke="black" points="452,-69 553,-69 "/>
<text text-anchor="middle" x="502.5" y="-57" font-family="Helvetica,sans-Serif" font-size="10.00"> </text>
</a>
</g>
</g>
<!-- Node1&#45;&gt;Node5 -->
<g id="edge4" class="edge">
<title>Node1&#45;&gt;Node5</title>
<path fill="none" stroke="midnightblue" d="M421.08,-196.08C428.3,-186.74 435.65,-177.13 442.5,-168 454.67,-151.79 467.9,-133.56 478.83,-118.32"/>
<polygon fill="none" stroke="midnightblue" points="418.14,-194.16 414.78,-204.21 423.67,-198.45 418.14,-194.16"/>
</g>
<!-- Node6 -->
<g id="node6" class="node">
<title>Node6</title>
<g id="a_node6"><a xlink:href="classtb__template2.html" target="_top" xlink:title=" ">
<polygon fill="white" stroke="black" points="571,-50 571,-118 672,-118 672,-50 571,-50"/>
<text text-anchor="middle" x="621.5" y="-106" font-family="Helvetica,sans-Serif" font-size="10.00">tb_template2</text>
<polyline fill="none" stroke="black" points="571,-99 672,-99 "/>
<text text-anchor="start" x="579" y="-87" font-family="Helvetica,sans-Serif" font-size="10.00">+ G_CLK_PERIOD</text>
<text text-anchor="start" x="579" y="-76" font-family="Helvetica,sans-Serif" font-size="10.00">+ G_SKIPTESTS</text>
<polyline fill="none" stroke="black" points="571,-69 672,-69 "/>
<text text-anchor="middle" x="621.5" y="-57" font-family="Helvetica,sans-Serif" font-size="10.00"> </text>
</a>
</g>
</g>
<!-- Node1&#45;&gt;Node6 -->
<g id="edge5" class="edge">
<title>Node1&#45;&gt;Node6</title>
<path fill="none" stroke="midnightblue" d="M432.45,-236.59C471.91,-222.54 524.07,-199.84 562.5,-168 579.11,-154.24 593.29,-134.74 603.58,-118.1"/>
<polygon fill="none" stroke="midnightblue" points="431,-233.39 422.7,-239.98 433.3,-240 431,-233.39"/>
</g>
</g>
</svg>
        <g id="navigator" transform="translate(0 0)" fill="#404254">
                <rect fill="#f2f5e9" fill-opacity="0.5" stroke="#606060" stroke-width=".5" x="0" y="0" width="60" height="60"/>
                <use id="zoomplus" xlink:href="#zoomPlus" x="17" y="9" onmousedown="handleZoom(evt,'in')"/>
                <use id="zoomminus" xlink:href="#zoomMin" x="42" y="9" onmousedown="handleZoom(evt,'out')"/>
                <use id="reset" xlink:href="#resetDef" x="30" y="36" onmousedown="handleReset()"/>
                <g id="arrowUp" xlink:href="#dirArrow" transform="translate(30 24)" onmousedown="handlePan(0,-1)">
                  <use xlink:href="#rim" fill="#404040">
                        <set attributeName="fill" to="#808080" begin="arrowUp.mouseover" end="arrowUp.mouseout"/>
                  </use>
                  <path fill="none" stroke="white" stroke-width="1.5" d="M0,-3.0v7 M-2.5,-0.5L0,-3.0L2.5,-0.5"/>
                </g>
                <g id="arrowRight" xlink:href="#dirArrow" transform="rotate(90) translate(36 -43)" onmousedown="handlePan(1,0)">
                  <use xlink:href="#rim" fill="#404040">
                        <set attributeName="fill" to="#808080" begin="arrowRight.mouseover" end="arrowRight.mouseout"/>
                  </use>
                  <path fill="none" stroke="white" stroke-width="1.5" d="M0,-3.0v7 M-2.5,-0.5L0,-3.0L2.5,-0.5"/>
                </g>
                <g id="arrowDown" xlink:href="#dirArrow" transform="rotate(180) translate(-30 -48)" onmousedown="handlePan(0,1)">
                  <use xlink:href="#rim" fill="#404040">
                        <set attributeName="fill" to="#808080" begin="arrowDown.mouseover" end="arrowDown.mouseout"/>
                  </use>
                  <path fill="none" stroke="white" stroke-width="1.5" d="M0,-3.0v7 M-2.5,-0.5L0,-3.0L2.5,-0.5"/>
                </g>
                <g id="arrowLeft" xlink:href="#dirArrow" transform="rotate(270) translate(-36 17)" onmousedown="handlePan(-1,0)">
                  <use xlink:href="#rim" fill="#404040">
                        <set attributeName="fill" to="#808080" begin="arrowLeft.mouseover" end="arrowLeft.mouseout"/>
                  </use>
                  <path fill="none" stroke="white" stroke-width="1.5" d="M0,-3.0v7 M-2.5,-0.5L0,-3.0L2.5,-0.5"/>
                </g>
        </g>
        <svg viewBox="0 0 15 15" width="100%" height="30px" preserveAspectRatio="xMaxYMin meet">
         <g id="arrow_out" transform="scale(0.3 0.3)">
          <a xlink:href="classpltbutils__clkgen__inherit__graph_org.svg" target="_base">
           <rect id="button" ry="5" rx="5" y="6" x="6" height="38" width="38"
                fill="#f2f5e9" fill-opacity="0.5" stroke="#606060" stroke-width="1.0"/>
           <path id="arrow"
             d="M 11.500037,31.436501 C 11.940474,20.09759 22.043105,11.32322 32.158766,21.979434 L 37.068811,17.246167 C 37.068811,17.246167 37.088388,32 37.088388,32 L 22.160133,31.978069 C 22.160133,31.978069 26.997745,27.140456 26.997745,27.140456 C 18.528582,18.264221 13.291696,25.230495 11.500037,31.436501 z"
             style="fill:#404040;"/>
          </a>
         </g>
        </svg>
</svg>
