<?xml version="1.0" encoding="UTF-8" standalone="no"?>
<!DOCTYPE svg PUBLIC "-//W3C//DTD SVG 1.1//EN"
 "http://www.w3.org/Graphics/SVG/1.1/DTD/svg11.dtd">
<!-- Generated by graphviz version 2.43.0 (0)
 -->
<!-- Title: tb_example1 Pages: 1 -->
<svg width="236pt" height="270pt"
 viewBox="0.00 0.00 236.00 270.00" xmlns="http://www.w3.org/2000/svg" xmlns:xlink="http://www.w3.org/1999/xlink">
<g id="graph0" class="graph" transform="scale(1 1) rotate(0) translate(4 266)">
<title>tb_example1</title>
<polygon fill="white" stroke="transparent" points="-4,4 -4,-266 232,-266 232,4 -4,4"/>
<!-- Node1 -->
<g id="node1" class="node">
<title>Node1</title>
<g id="a_node1"><a xlink:title=" ">
<polygon fill="#bfbfbf" stroke="black" points="61,-0.5 61,-79.5 177,-79.5 177,-0.5 61,-0.5"/>
<text text-anchor="middle" x="119" y="-67.5" font-family="Helvetica,sans-Serif" font-size="10.00">tb_example1</text>
<polyline fill="none" stroke="black" points="61,-60.5 177,-60.5 "/>
<text text-anchor="start" x="69" y="-48.5" font-family="Helvetica,sans-Serif" font-size="10.00">+ G_WIDTH</text>
<text text-anchor="start" x="69" y="-37.5" font-family="Helvetica,sans-Serif" font-size="10.00">+ G_CLK_PERIOD</text>
<text text-anchor="start" x="69" y="-26.5" font-family="Helvetica,sans-Serif" font-size="10.00">+ G_DISABLE_BUGS</text>
<polyline fill="none" stroke="black" points="61,-19.5 177,-19.5 "/>
<text text-anchor="middle" x="119" y="-7.5" font-family="Helvetica,sans-Serif" font-size="10.00"> </text>
</a>
</g>
</g>
<!-- Node2 -->
<g id="node2" class="node">
<title>Node2</title>
<g id="a_node2"><a xlink:href="classdut__example.html" target="_top" xlink:title=" ">
<polygon fill="white" stroke="black" points="0,-116.5 0,-261.5 116,-261.5 116,-116.5 0,-116.5"/>
<text text-anchor="middle" x="58" y="-249.5" font-family="Helvetica,sans-Serif" font-size="10.00">dut_example</text>
<polyline fill="none" stroke="black" points="0,-242.5 116,-242.5 "/>
<text text-anchor="start" x="8" y="-230.5" font-family="Helvetica,sans-Serif" font-size="10.00">+ G_WIDTH</text>
<text text-anchor="start" x="8" y="-219.5" font-family="Helvetica,sans-Serif" font-size="10.00">+ G_DISABLE_BUGS</text>
<text text-anchor="start" x="8" y="-208.5" font-family="Helvetica,sans-Serif" font-size="10.00">+ clk_i</text>
<text text-anchor="start" x="8" y="-197.5" font-family="Helvetica,sans-Serif" font-size="10.00">+ rst_i</text>
<text text-anchor="start" x="8" y="-186.5" font-family="Helvetica,sans-Serif" font-size="10.00">+ carry_i</text>
<text text-anchor="start" x="8" y="-175.5" font-family="Helvetica,sans-Serif" font-size="10.00">+ x_i</text>
<text text-anchor="start" x="8" y="-164.5" font-family="Helvetica,sans-Serif" font-size="10.00">+ y_i</text>
<text text-anchor="start" x="8" y="-153.5" font-family="Helvetica,sans-Serif" font-size="10.00">+ sum_o</text>
<text text-anchor="start" x="8" y="-142.5" font-family="Helvetica,sans-Serif" font-size="10.00">+ carry_o</text>
<polyline fill="none" stroke="black" points="0,-135.5 116,-135.5 "/>
<text text-anchor="middle" x="58" y="-123.5" font-family="Helvetica,sans-Serif" font-size="10.00"> </text>
</a>
</g>
</g>
<!-- Node2&#45;&gt;Node1 -->
<g id="edge1" class="edge">
<title>Node2&#45;&gt;Node1</title>
<path fill="none" stroke="midnightblue" d="M91.68,-106.83C95.57,-97.47 99.38,-88.28 102.87,-79.87"/>
<polygon fill="none" stroke="midnightblue" points="88.39,-105.64 87.79,-116.22 94.85,-108.33 88.39,-105.64"/>
</g>
<!-- Node3 -->
<g id="node3" class="node">
<title>Node3</title>
<g id="a_node3"><a xlink:href="classpltbutils__clkgen.html" target="_top" xlink:title=" ">
<polygon fill="white" stroke="black" points="134,-138.5 134,-239.5 228,-239.5 228,-138.5 134,-138.5"/>
<text text-anchor="middle" x="181" y="-227.5" font-family="Helvetica,sans-Serif" font-size="10.00">pltbutils_clkgen</text>
<polyline fill="none" stroke="black" points="134,-220.5 228,-220.5 "/>
<text text-anchor="start" x="142" y="-208.5" font-family="Helvetica,sans-Serif" font-size="10.00">+ G_PERIOD</text>
<text text-anchor="start" x="142" y="-197.5" font-family="Helvetica,sans-Serif" font-size="10.00">+ G_INITVALUE</text>
<text text-anchor="start" x="142" y="-186.5" font-family="Helvetica,sans-Serif" font-size="10.00">+ clk_o</text>
<text text-anchor="start" x="142" y="-175.5" font-family="Helvetica,sans-Serif" font-size="10.00">+ clk_n_o</text>
<text text-anchor="start" x="142" y="-164.5" font-family="Helvetica,sans-Serif" font-size="10.00">+ stop_sim_i</text>
<polyline fill="none" stroke="black" points="134,-157.5 228,-157.5 "/>
<text text-anchor="middle" x="181" y="-145.5" font-family="Helvetica,sans-Serif" font-size="10.00"> </text>
</a>
</g>
</g>
<!-- Node3&#45;&gt;Node1 -->
<g id="edge2" class="edge">
<title>Node3&#45;&gt;Node1</title>
<path fill="none" stroke="midnightblue" d="M155.96,-128.64C148.99,-112.1 141.59,-94.56 135.26,-79.56"/>
<polygon fill="none" stroke="midnightblue" points="152.9,-130.38 160.01,-138.23 159.35,-127.66 152.9,-130.38"/>
</g>
</g>
</svg>
