<?xml version="1.0" encoding="UTF-8" standalone="no"?>
<!DOCTYPE svg PUBLIC "-//W3C//DTD SVG 1.1//EN"
 "http://www.w3.org/Graphics/SVG/1.1/DTD/svg11.dtd">
<!-- Generated by graphviz version 2.43.0 (0)
 -->
<!-- Title: Graphical Class Hierarchy Pages: 1 -->
<svg width="220pt" height="180pt"
 viewBox="0.00 0.00 220.00 180.00" xmlns="http://www.w3.org/2000/svg" xmlns:xlink="http://www.w3.org/1999/xlink">
<g id="graph0" class="graph" transform="scale(1 1) rotate(0) translate(4 176)">
<title>Graphical Class Hierarchy</title>
<polygon fill="white" stroke="transparent" points="-4,4 -4,-176 216,-176 216,4 -4,4"/>
<!-- Node0 -->
<g id="node1" class="node">
<title>Node0</title>
<g id="a_node1"><a xlink:href="classdut__example.html" target="_top" xlink:title=" ">
<polygon fill="white" stroke="black" points="7,-114.5 7,-133.5 87,-133.5 87,-114.5 7,-114.5"/>
<text text-anchor="middle" x="47" y="-121.5" font-family="Helvetica,sans-Serif" font-size="10.00">dut_example</text>
</a>
</g>
</g>
<!-- Node1 -->
<g id="node2" class="node">
<title>Node1</title>
<g id="a_node2"><a xlink:href="classtb__example1.html" target="_top" xlink:title="This is an example which demonstrates how PlTbUtils can be used.">
<polygon fill="white" stroke="black" points="131,-114.5 131,-133.5 211,-133.5 211,-114.5 131,-114.5"/>
<text text-anchor="middle" x="171" y="-121.5" font-family="Helvetica,sans-Serif" font-size="10.00">tb_example1</text>
</a>
</g>
</g>
<!-- Node0&#45;&gt;Node1 -->
<g id="edge1" class="edge">
<title>Node0&#45;&gt;Node1</title>
<path fill="none" stroke="midnightblue" d="M97.31,-124C108.45,-124 120.14,-124 130.8,-124"/>
<polygon fill="midnightblue" stroke="midnightblue" points="97.27,-120.5 87.27,-124 97.27,-127.5 97.27,-120.5"/>
</g>
<!-- Node2 -->
<g id="node3" class="node">
<title>Node2</title>
<g id="a_node3"><a xlink:href="classtb__example2.html" target="_top" xlink:title=" ">
<polygon fill="white" stroke="black" points="131,-152.5 131,-171.5 211,-171.5 211,-152.5 131,-152.5"/>
<text text-anchor="middle" x="171" y="-159.5" font-family="Helvetica,sans-Serif" font-size="10.00">tb_example2</text>
</a>
</g>
</g>
<!-- Node0&#45;&gt;Node2 -->
<g id="edge2" class="edge">
<title>Node0&#45;&gt;Node2</title>
<path fill="none" stroke="midnightblue" d="M88.71,-136.68C105.2,-141.81 123.91,-147.64 139.22,-152.41"/>
<polygon fill="midnightblue" stroke="midnightblue" points="89.37,-133.22 78.79,-133.59 87.29,-139.9 89.37,-133.22"/>
</g>
<!-- Node4 -->
<g id="node4" class="node">
<title>Node4</title>
<g id="a_node4"><a xlink:href="classpltbutils__clkgen.html" target="_top" xlink:title="Creates a clock for use in a testbench.">
<polygon fill="white" stroke="black" points="0,-76.5 0,-95.5 94,-95.5 94,-76.5 0,-76.5"/>
<text text-anchor="middle" x="47" y="-83.5" font-family="Helvetica,sans-Serif" font-size="10.00">pltbutils_clkgen</text>
</a>
</g>
</g>
<!-- Node4&#45;&gt;Node1 -->
<g id="edge4" class="edge">
<title>Node4&#45;&gt;Node1</title>
<path fill="none" stroke="midnightblue" d="M88.71,-98.68C105.2,-103.81 123.91,-109.64 139.22,-114.41"/>
<polygon fill="midnightblue" stroke="midnightblue" points="89.37,-95.22 78.79,-95.59 87.29,-101.9 89.37,-95.22"/>
</g>
<!-- Node4&#45;&gt;Node2 -->
<g id="edge5" class="edge">
<title>Node4&#45;&gt;Node2</title>
<path fill="none" stroke="midnightblue" d="M85.88,-100.1C88.71,-101.61 91.45,-103.25 94,-105 113.17,-118.18 111.17,-129.33 130,-143 134.85,-146.52 140.46,-149.66 145.92,-152.33"/>
<polygon fill="midnightblue" stroke="midnightblue" points="87.23,-96.86 76.7,-95.66 84.19,-103.16 87.23,-96.86"/>
</g>
<!-- Node5 -->
<g id="node5" class="node">
<title>Node5</title>
<g id="a_node5"><a xlink:href="classtb__pltbutils.html" target="_top" xlink:title=" ">
<polygon fill="white" stroke="black" points="135.5,-38.5 135.5,-57.5 206.5,-57.5 206.5,-38.5 135.5,-38.5"/>
<text text-anchor="middle" x="171" y="-45.5" font-family="Helvetica,sans-Serif" font-size="10.00">tb_pltbutils</text>
</a>
</g>
</g>
<!-- Node4&#45;&gt;Node5 -->
<g id="edge3" class="edge">
<title>Node4&#45;&gt;Node5</title>
<path fill="none" stroke="midnightblue" d="M88.71,-73.32C105.2,-68.19 123.91,-62.36 139.22,-57.59"/>
<polygon fill="midnightblue" stroke="midnightblue" points="87.29,-70.1 78.79,-76.41 89.37,-76.78 87.29,-70.1"/>
</g>
<!-- Node6 -->
<g id="node6" class="node">
<title>Node6</title>
<g id="a_node6"><a xlink:href="classtb__template1.html" target="_top" xlink:title=" ">
<polygon fill="white" stroke="black" points="130,-76.5 130,-95.5 212,-95.5 212,-76.5 130,-76.5"/>
<text text-anchor="middle" x="171" y="-83.5" font-family="Helvetica,sans-Serif" font-size="10.00">tb_template1</text>
</a>
</g>
</g>
<!-- Node4&#45;&gt;Node6 -->
<g id="edge6" class="edge">
<title>Node4&#45;&gt;Node6</title>
<path fill="none" stroke="midnightblue" d="M104.17,-86C112.82,-86 121.6,-86 129.81,-86"/>
<polygon fill="midnightblue" stroke="midnightblue" points="104.12,-82.5 94.12,-86 104.12,-89.5 104.12,-82.5"/>
</g>
<!-- Node7 -->
<g id="node7" class="node">
<title>Node7</title>
<g id="a_node7"><a xlink:href="classtb__template2.html" target="_top" xlink:title=" ">
<polygon fill="white" stroke="black" points="130,-0.5 130,-19.5 212,-19.5 212,-0.5 130,-0.5"/>
<text text-anchor="middle" x="171" y="-7.5" font-family="Helvetica,sans-Serif" font-size="10.00">tb_template2</text>
</a>
</g>
</g>
<!-- Node4&#45;&gt;Node7 -->
<g id="edge7" class="edge">
<title>Node4&#45;&gt;Node7</title>
<path fill="none" stroke="midnightblue" d="M68.57,-70.29C84.79,-58.25 108.23,-41.62 130,-29 135.72,-25.68 142.11,-22.45 148.08,-19.62"/>
<polygon fill="midnightblue" stroke="midnightblue" points="66.26,-67.65 60.36,-76.45 70.46,-73.25 66.26,-67.65"/>
</g>
<!-- Node10 -->
<g id="node8" class="node">
<title>Node10</title>
<g id="a_node8"><a xlink:href="classtc__example2.html" target="_top" xlink:title=" ">
<polygon fill="white" stroke="black" points="7,-152.5 7,-171.5 87,-171.5 87,-152.5 7,-152.5"/>
<text text-anchor="middle" x="47" y="-159.5" font-family="Helvetica,sans-Serif" font-size="10.00">tc_example2</text>
</a>
</g>
</g>
<!-- Node10&#45;&gt;Node2 -->
<g id="edge8" class="edge">
<title>Node10&#45;&gt;Node2</title>
<path fill="none" stroke="midnightblue" d="M97.31,-162C108.45,-162 120.14,-162 130.8,-162"/>
<polygon fill="midnightblue" stroke="midnightblue" points="97.27,-158.5 87.27,-162 97.27,-165.5 97.27,-158.5"/>
</g>
<!-- Node11 -->
<g id="node9" class="node">
<title>Node11</title>
<g id="a_node9"><a xlink:href="classtc__template2.html" target="_top" xlink:title=" ">
<polygon fill="white" stroke="black" points="6.5,-0.5 6.5,-19.5 87.5,-19.5 87.5,-0.5 6.5,-0.5"/>
<text text-anchor="middle" x="47" y="-7.5" font-family="Helvetica,sans-Serif" font-size="10.00">tc_template2</text>
</a>
</g>
</g>
<!-- Node11&#45;&gt;Node7 -->
<g id="edge9" class="edge">
<title>Node11&#45;&gt;Node7</title>
<path fill="none" stroke="midnightblue" d="M97.65,-10C108.33,-10 119.49,-10 129.75,-10"/>
<polygon fill="midnightblue" stroke="midnightblue" points="97.61,-6.5 87.61,-10 97.61,-13.5 97.61,-6.5"/>
</g>
</g>
</svg>
